<svg xmlns="http://www.w3.org/2000/svg" viewBox="0 0 8 14" width="8" height="14">
  <style>path { display: none; } path:target { display: inline; }</style>
  <path id="black" fill="#000" d="m7.7 7.7-6 6c-.2.2-.4.3-.7.3s-.5-.1-.7-.3c-.4-.4-.4-1 0-1.4l5.3-5.3-5.3-5.3c-.4-.4-.4-1 0-1.4s1-.4 1.4 0l6 6c.4.4.4 1 0 1.4z"/>
  <path id="white" fill="#fff" d="m7.7 7.7-6 6c-.2.2-.4.3-.7.3s-.5-.1-.7-.3c-.4-.4-.4-1 0-1.4l5.3-5.3-5.3-5.3c-.4-.4-.4-1 0-1.4s1-.4 1.4 0l6 6c.4.4.4 1 0 1.4z"/>
  <path id="magenta" fill="#ED008C" d="m7.7 7.7-6 6c-.2.2-.4.3-.7.3s-.5-.1-.7-.3c-.4-.4-.4-1 0-1.4l5.3-5.3-5.3-5.3c-.4-.4-.4-1 0-1.4s1-.4 1.4 0l6 6c.4.4.4 1 0 1.4z"/>
</svg>
