<svg height="20" viewBox="0 0 200 20" width="200" xmlns="http://www.w3.org/2000/svg"><g fill="#fff" fill-rule="evenodd" transform="translate(0 .322976)"><path d="m6.65431072 17.7828009v-1.3584245h-.04857768c-.63107221 1.1886214-1.57724289 1.6008752-2.88752735 1.6008752-3.54310722 0-3.42188184-3.931291-3.42188184-6.4547046 0-2.47527348-.09671772-6.28490149 3.3487965-6.28490149 1.23763676 0 2.08708972.36367615 2.79080963 1.40743983h.04857768v-6.43063457h3.4214442v17.52035013zm-.16977673-6.2363239c0-2.45120348.02404369-4.14967175-1.38339613-4.14967175-1.48008753 0-1.45604139 1.69846827-1.45604139 4.14967175 0 3.0818381.21840462 4.3676149 1.45604139 4.3676149 1.16498905 0 1.38339613-1.2857768 1.38339613-4.3676149z"/><path d="m15.099081 12.2014004c0 1.4560175.0485776 3.6402626 1.5531728 3.6402626 1.2131291 0 1.4560175-1.164989 1.4560175-2.1842451h3.4700219c-.0485777 1.3347922-.4853392 2.4266959-1.3102844 3.1789935-.8008753.7522976-2.0140044 1.1890591-3.615755 1.1890591-4.4166302 0-4.9991247-2.6936543-4.9991247-6.5273523 0-3.34923417.4853392-6.2126915 4.9991247-6.2126915 4.6105033 0 5.1199125 2.98512035 4.9986871 6.9159737zm3.1304157-1.916849c0-1.18905906.0485777-2.88796497-1.5772429-2.88796497-1.5772429 0-1.553194 1.84463895-1.553194 2.88796497z"/><path d="m25.3365427 17.7828009h-1.4560175v-9.43982497c0-.94617068-.0726477-1.91684902-.1212254-2.74179431h1.5045952l.0726477 1.79562363.0485777.04857768c.8494529-1.50459518 2.2323851-2.2083151 3.809628-2.2083151 3.9798687 0 4.2954048 3.51859957 4.2954048 4.92603937v7.6196937h-1.4560175v-7.86214444c0-2.11159738-1.2135668-3.3487965-3.2030635-3.3487965-2.4026258 0-3.4945295 2.01400437-3.4945295 4.19781184z"/><path d="m36.3536105 2.08271335h1.6984683v-1.82013129h-1.6984683zm.1212254 15.70021885h1.4560175v-12.18161929h-1.4560175z"/><path d="m41.7645952 12.0315536c.0485777 2.5964989 1.2376367 4.780744 4.2223195 4.780744 1.7229759 0 3.1544857-1.2376368 3.5185995-2.912035h1.5286652c-.7522976 2.912035-2.5719912 4.2463895-5.5085339 4.2463895-3.6398249 0-5.3382932-3.1304158-5.3382932-6.4547046 0-3.30021883 1.8196937-6.45470461 5.4354486-6.45470461 4.077024 0 5.5571116 2.98468271 5.5571116 6.79431071zm7.8380744-1.3343545c-.1698031-2.35404812-1.4319475-4.12560173-3.9553611-4.12560173-2.3781181 0-3.6402625 1.98993436-3.8341356 4.12560173z"/><path d="m61.6388184 5.6009628h1.4560175v9.4393873c0 .9466083.0726477 1.9172867.1212254 2.742232h-1.5045952l-.0726477-1.7956237-.0485777-.0485777c-.8490153 1.5045952-2.2323851 2.2083151-3.809628 2.2083151-3.9798687 0-4.2954048-3.5185995-4.2954048-4.9260393v-7.6196937h1.4560175v7.8621444c0 2.1111598 1.2135667 3.3487965 3.2035011 3.3487965 2.4021882 0 3.4940919-2.0140044 3.4940919-4.1978118z"/><path d="m69.7197374 15.8657768h.0485777l3.6884026-10.26477024h1.722976l3.5912472 10.16761484h.0485777l3.5185996-10.16761484h1.6017505l-4.5378556 12.18205694h-1.3833698l-3.7369803-10.50765869h-.0485777l-3.809628 10.50765869h-1.4800875l-4.4652079-12.18205694h1.6017506z"/><path d="m86.147965 12.0315536c.0485777 2.5964989 1.2376368 4.780744 4.2223195 4.780744 1.7229759 0 3.1544857-1.2376368 3.5185995-2.912035h1.5286652c-.7518599 2.912035-2.5719912 4.2463895-5.5085339 4.2463895-3.6398249 0-5.3382932-3.1304158-5.3382932-6.4547046 0-3.30021883 1.8196937-6.45470461 5.4354486-6.45470461 4.077024 0 5.5571116 2.98468271 5.5571116 6.79431071zm7.8380744-1.3343545c-.1698031-2.35404812-1.4315099-4.12560173-3.9553611-4.12560173-2.3781181 0-3.6402625 1.98993436-3.8341356 4.12560173z"/><path d="m97.1865646.26236324h3.4214444v6.43063457h.048577c.70372-1.0428884 1.553173-1.40700219 2.79081-1.40700219 3.445514 0 3.348797 3.80919038 3.348797 6.28446388 0 2.5238512.120787 6.4547046-3.421445 6.4547046-1.310722 0-2.256892-.4122538-2.887965-1.6013129h-.048577v1.3588621h-3.2516414zm6.2608544 11.28402626c0-2.4512035.023609-4.14967178-1.45604-4.14967178-1.40744 0-1.383397 1.69846828-1.383397 4.14967178 0 3.0818381.218407 4.3676149 1.383397 4.3676149 1.237636 0 1.45604-1.2857768 1.45604-4.3676149z"/><path d="m108.859081 2.95623632h3.421444v-2.69365426h-3.421444zm0 14.82669588h3.421444v-12.25470463h-3.421444z"/><path d="m114.585602.26236324h3.421444v6.43063457h.048578c.70372-1.0428884 1.553172-1.40700219 2.790809-1.40700219 3.445514 0 3.348359 3.80919038 3.348359 6.28446388 0 2.5238512.121663 6.4547046-3.421444 6.4547046-1.310285 0-2.256893-.4122538-2.887527-1.6013129h-.048578v1.3588621h-3.251641zm6.260855 11.28402626c0-2.4512035.024046-4.14967178-1.456041-4.14967178-1.40744 0-1.383396 1.69846828-1.383396 4.14967178 0 3.0818381.218407 4.3676149 1.383396 4.3676149 1.237199 0 1.456041-1.2857768 1.456041-4.3676149z"/><path d="m126.257768 17.7829322h3.421444v-17.52035014h-3.421444z"/><path d="m132.252079 2.95623632h3.421444v-2.69365426h-3.421444zm0 14.82669588h3.421444v-12.25470463h-3.421444z"/><path d="m137.663239 11.4979431c0-3.34879649.484901-6.21225382 4.999124-6.21225382 4.513348 0 4.998687 2.86345733 4.998687 6.21225382 0 3.8341357-.582494 6.5273523-4.998687 6.5273523-4.41663 0-4.999124-2.6932166-4.999124-6.5273523m6.576367-.1943107c0-2.54792124-.121225-3.83413568-1.577243-3.83413568-1.456017 0-1.57768 1.28621444-1.57768 3.83413568 0 3.7369803.315536 4.5378556 1.57768 4.5378556 1.261707 0 1.577243-.8008753 1.577243-4.5378556"/><path d="m147.951991 5.5283151h1.38337v-1.94135668l3.421444-1.5286652v3.47002188h1.771554v2.11115974h-1.771554v6.55185996c0 .9221006-.02407 1.5291028 1.092342 1.5291028.21838 0 .436761 0 .606127-.0485776v2.1111597c-.460394.0485777-.946171.1212254-1.771116.1212254-2.960176 0-3.348797-1.9658644-3.348797-2.7181619v-7.54660836h-1.38337z"/><path d="m161.347352 17.7828009v-8.44463897c0-1.09234136-.193873-1.94135668-1.286214-1.94135668-1.092342 0-1.286215.84901532-1.286215 1.94135668v8.44463897h-3.421006v-17.52035013h3.421006v6.50328227h.04814c.340482-.55798687.752298-.92210065 1.214005-1.1404814.484901-.24245076 1.043326-.33960613 1.674398-.33960613 1.625821 0 3.056893.97067834 3.056893 2.66914661v9.82800878z"/><path d="m169.888972 12.2014004c0 1.4560175.048577 3.6402626 1.553172 3.6402626 1.21313 0 1.456018-1.164989 1.456018-2.1842451h3.470459c-.049015 1.3347922-.485776 2.4266959-1.310284 3.1789935-.801313.7522976-2.01488 1.1890591-3.616193 1.1890591-4.41663 0-4.999124-2.6936543-4.999124-6.5273523 0-3.34923417.485339-6.2126915 4.999124-6.2126915 4.610504 0 5.119913 2.98512035 4.999125 6.9159737zm3.130415-1.916849c0-1.18905906.049016-2.88796497-1.577243-2.88796497-1.577242 0-1.553194 1.84463895-1.553194 2.88796497z"/><path d="m181.294442 12.2014004c0 1.4560175.048578 3.6402626 1.553173 3.6402626 1.213129 0 1.456017-1.164989 1.456017-2.1842451h3.470022c-.048577 1.3347922-.485777 2.4266959-1.310284 3.1789935-.800875.7522976-2.014442 1.1890591-3.615755 1.1890591-4.41663 0-4.999125-2.6936543-4.999125-6.5273523 0-3.34923417.485339-6.2126915 4.999125-6.2126915 4.610503 0 5.119912 2.98512035 4.998687 6.9159737zm3.130416-1.916849c0-1.18905906.048577-2.88796497-1.577243-2.88796497-1.577243 0-1.553194 1.84463895-1.553194 2.88796497z"/><path d="m189.472341 17.7828009v-17.52035013h3.421007v10.43457333h.049015l3.081838-5.16892782h3.567178l-3.47046 5.45995622 3.859081 6.7947484h-3.859081l-3.178556-6.673523h-.049015v6.673523z"/></g></svg>
