<?xml version="1.0" standalone="no"?>
<!DOCTYPE svg PUBLIC "-//W3C//DTD SVG 20010904//EN"
 "http://www.w3.org/TR/2001/REC-SVG-20010904/DTD/svg10.dtd">
<svg version="1.0" xmlns="http://www.w3.org/2000/svg"
 width="700.000000pt" height="700.000000pt" viewBox="0 0 700.000000 700.000000"
 preserveAspectRatio="xMidYMid meet">
<metadata>
Created by potrace 1.14, written by Peter Selinger 2001-2017
</metadata>
<g transform="translate(0.000000,700.000000) scale(0.100000,-0.100000)"
fill="#000000" stroke="none">
<path d="M3250 6993 c-1469 -107 -2719 -1126 -3119 -2541 -134 -474 -166 -993
-91 -1483 221 -1451 1339 -2619 2780 -2903 255 -50 365 -60 680 -60 322 0 434
10 700 64 1280 257 2328 1235 2674 2495 92 334 120 554 120 935 0 315 -9 423
-60 680 -193 982 -804 1837 -1678 2349 -435 255 -947 415 -1471 460 -110 10
-427 12 -535 4z m-2380 -3478 l0 -255 -45 0 c-39 0 -45 3 -45 21 l0 20 -26
-20 c-47 -37 -115 -25 -141 24 -34 63 -26 248 12 293 28 33 92 37 124 8 l21
-19 0 91 0 92 50 0 50 0 0 -255z m820 229 c0 -21 -4 -25 -22 -22 -15 2 -24 11
-26 26 -3 18 1 22 22 22 21 0 26 -5 26 -26z m1830 -66 l0 -91 21 19 c32 29 96
25 124 -8 38 -45 46 -230 12 -293 -26 -49 -94 -61 -141 -24 l-26 20 0 -20 c0
-18 -6 -21 -45 -21 l-45 0 0 255 0 255 50 0 50 0 0 -92z m340 57 l0 -35 -50 0
-50 0 0 35 0 35 50 0 50 0 0 -35z m160 -54 l0 -88 40 19 c52 26 95 17 121 -25
17 -28 19 -47 17 -155 -3 -122 -3 -124 -31 -148 -37 -31 -92 -32 -124 -2 l-23
21 0 -21 c0 -19 -5 -22 -45 -22 l-45 0 0 255 0 255 45 0 45 0 0 -89z m340
-166 l0 -255 -45 0 -45 0 0 255 0 255 45 0 45 0 0 -255z m180 220 l0 -35 -50
0 -50 0 0 35 0 35 50 0 50 0 0 -35z m670 -54 l0 -88 40 19 c48 24 91 17 120
-19 19 -24 20 -38 18 -177 l-3 -151 -47 -3 -48 -3 0 144 c0 154 -7 176 -48
162 -27 -8 -32 -32 -32 -177 l0 -128 -45 0 -45 0 0 255 0 255 45 0 45 0 0 -89z
m1002 -58 l3 -148 43 73 43 72 50 0 51 0 -23 -37 c-12 -21 -35 -56 -50 -79
l-28 -41 54 -94 c30 -52 55 -98 55 -102 0 -4 -24 -7 -52 -5 l-53 3 -47 95 -47
95 0 -97 -1 -98 -50 0 -50 0 0 255 0 255 50 0 49 0 3 -147z m-1146 -3 c20 0
24 -5 24 -30 0 -25 -4 -30 -25 -30 l-26 0 3 -117 c3 -115 4 -118 26 -121 19
-3 23 -9 20 -30 -2 -21 -9 -28 -32 -30 -40 -5 -73 5 -96 28 -18 18 -20 34 -20
145 0 118 -1 125 -20 125 -16 0 -20 7 -20 30 0 23 4 30 20 30 15 0 20 7 20 29
0 24 7 31 48 49 l47 21 3 -50 c3 -45 5 -49 28 -49z m-3915 -11 c35 -18 59 -70
59 -126 l0 -53 -96 0 -97 0 7 -42 c4 -23 12 -48 18 -55 22 -27 68 -8 68 29 0
15 9 18 50 18 54 0 57 -4 36 -54 -17 -40 -67 -66 -131 -66 -58 0 -100 21 -121
62 -24 46 -23 190 1 241 9 20 18 37 19 37 0 0 19 7 41 15 42 16 111 13 146 -6z
m361 -5 c39 -35 48 -76 48 -214 0 -122 -1 -130 -19 -130 -18 0 -20 10 -23 141
-3 140 -3 141 -31 165 -33 28 -82 31 -116 8 -39 -28 -51 -73 -51 -199 0 -108
-1 -115 -20 -115 -19 0 -20 7 -20 180 0 173 1 180 20 180 15 0 20 -7 20 -27
l0 -26 23 20 c12 11 31 26 42 32 28 16 102 7 127 -15z m476 6 c49 -22 81 -79
82 -142 l0 -38 -136 0 -136 0 6 -32 c13 -69 66 -112 129 -104 42 5 74 28 88
64 7 19 49 33 49 17 0 -23 -46 -88 -71 -101 -45 -23 -134 -21 -167 3 -41 30
-72 98 -72 160 0 149 105 229 228 173z m1311 -7 c36 -27 58 -69 66 -125 l7
-48 -136 0 -136 0 0 -25 c0 -115 166 -158 212 -55 13 29 48 42 48 18 0 -25
-40 -77 -71 -94 -45 -23 -118 -22 -159 2 -72 42 -100 180 -54 269 40 78 155
108 223 58z m1533 6 c67 -36 79 -244 18 -312 -27 -31 -32 -32 -103 -32 -66 0
-79 3 -101 24 -35 33 -49 91 -44 184 5 90 24 125 79 144 36 14 119 9 151 -8z
m843 -5 c29 -19 46 -57 52 -121 l6 -53 -97 0 -96 0 0 -38 c0 -21 6 -46 13 -57
19 -25 63 -13 71 20 6 22 11 25 55 25 l50 0 -9 -31 c-17 -60 -62 -89 -135 -89
-112 0 -151 56 -143 205 5 98 23 132 79 152 40 15 122 8 154 -13z m335 -2 c30
-22 49 -71 49 -129 l1 -43 -95 0 -95 0 0 -33 c0 -70 61 -105 83 -47 10 28 15
30 59 30 56 0 60 -10 25 -61 -32 -48 -61 -60 -135 -56 -74 4 -108 29 -122 93
-31 132 9 254 88 267 47 8 116 -2 142 -21z m-4320 -162 c0 -173 -1 -180 -20
-180 -19 0 -20 7 -20 180 0 173 1 180 20 180 19 0 20 -7 20 -180z m490 68 c0
-139 11 -183 50 -203 43 -22 76 -18 112 14 l33 29 3 136 c3 126 5 136 23 136
18 0 19 -9 19 -170 0 -93 0 -173 0 -177 0 -19 -35 -6 -40 15 l-5 24 -19 -21
c-50 -55 -153 -44 -190 19 -16 28 -21 57 -24 157 -5 131 -1 153 23 153 13 0
15 -18 15 -112z m344 70 c9 -24 33 -92 54 -152 l39 -110 17 45 c9 24 33 91 54
149 33 92 40 105 62 108 24 3 28 -5 74 -138 27 -77 52 -142 56 -145 4 -2 29
60 56 138 43 125 52 142 73 145 20 3 23 1 17 -15 -4 -10 -35 -91 -68 -180 -47
-125 -65 -163 -79 -163 -17 0 -29 27 -100 233 -13 37 -27 67 -30 67 -3 0 -28
-61 -55 -136 -54 -150 -64 -170 -86 -162 -12 5 -138 325 -138 351 0 4 9 7 19
7 14 0 24 -13 35 -42z m1334 -135 l-3 -178 -47 -3 -48 -3 0 180 0 181 50 0 50
0 -2 -177z m682 -4 l0 -180 -47 3 -48 3 -3 178 -2 177 50 0 50 0 0 -181z"/>
<path d="M706 3554 c-12 -12 -16 -37 -16 -105 0 -98 10 -129 40 -129 30 0 40
31 40 125 0 115 -22 152 -64 109z"/>
<path d="M3530 3551 c-5 -11 -10 -59 -10 -106 0 -94 10 -125 40 -125 30 0 40
31 40 129 0 68 -4 93 -16 105 -21 21 -41 20 -54 -3z"/>
<path d="M4039 3553 c-15 -18 -19 -156 -6 -206 6 -23 12 -28 34 -25 33 4 41
26 42 128 1 101 -32 150 -70 103z"/>
<path d="M1041 3557 c-6 -8 -14 -28 -17 -45 l-6 -32 52 0 53 0 -7 33 c-10 49
-50 73 -75 44z"/>
<path d="M1863 3578 c-19 -9 -63 -80 -63 -101 0 -4 52 -7 115 -7 97 0 115 2
115 15 0 25 -28 72 -52 89 -25 18 -82 20 -115 4z"/>
<path d="M3152 3574 c-24 -17 -52 -64 -52 -89 0 -13 18 -15 114 -15 l115 0
-10 33 c-13 48 -61 87 -107 87 -21 0 -48 -7 -60 -16z"/>
<path d="M4721 3554 c-19 -14 -21 -25 -21 -105 0 -102 10 -129 46 -129 33 0
44 32 44 126 0 104 -23 140 -69 108z"/>
<path d="M5556 3554 c-9 -8 -16 -29 -16 -45 0 -28 2 -29 45 -29 43 0 45 1 45
28 0 28 -26 62 -48 62 -6 0 -18 -7 -26 -16z"/>
<path d="M5886 3548 c-9 -12 -16 -33 -16 -45 0 -21 5 -23 45 -23 43 0 45 1 45
29 0 31 -22 61 -45 61 -8 0 -21 -10 -29 -22z"/>
</g>
</svg>
